<mxfile host="app.diagrams.net" agent="Mozilla/5.0 (Windows NT 10.0; Win64; x64) AppleWebKit/537.36 (KHTML, like Gecko) Chrome/131.0.0.0 Safari/537.36" version="24.8.6">
  <diagram name="Audit Topic" id="j2G9agFAxU3k_PVRaR00">
    <mxGraphModel dx="2441" dy="786" grid="1" gridSize="10" guides="1" tooltips="1" connect="1" arrows="1" fold="1" page="1" pageScale="1" pageWidth="850" pageHeight="1100" math="0" shadow="0">
      <root>
        <mxCell id="0" />
        <mxCell id="1" parent="0" />
        <mxCell id="XF66pa3Y2nR7-TbKiucR-1" value="" style="rounded=0;whiteSpace=wrap;html=1;" vertex="1" parent="1">
          <mxGeometry x="30" y="80" width="780" height="310" as="geometry" />
        </mxCell>
        <mxCell id="XF66pa3Y2nR7-TbKiucR-2" value="" style="rounded=0;whiteSpace=wrap;html=1;fillColor=#d5e8d4;strokeColor=#82b366;" vertex="1" parent="1">
          <mxGeometry x="30" y="80" width="780" height="40" as="geometry" />
        </mxCell>
        <mxCell id="XF66pa3Y2nR7-TbKiucR-3" value="&lt;b&gt;Audit Topic&lt;/b&gt;" style="text;html=1;align=center;verticalAlign=middle;whiteSpace=wrap;rounded=0;" vertex="1" parent="1">
          <mxGeometry x="30" y="85" width="120" height="30" as="geometry" />
        </mxCell>
        <mxCell id="XF66pa3Y2nR7-TbKiucR-4" value="Topic Name" style="rounded=0;whiteSpace=wrap;html=1;" vertex="1" parent="1">
          <mxGeometry x="60" y="140" width="200" height="30" as="geometry" />
        </mxCell>
        <mxCell id="XF66pa3Y2nR7-TbKiucR-5" value="Topic Description" style="rounded=0;whiteSpace=wrap;html=1;" vertex="1" parent="1">
          <mxGeometry x="320" y="140" width="200" height="30" as="geometry" />
        </mxCell>
        <mxCell id="XF66pa3Y2nR7-TbKiucR-6" value="Audit Objective" style="rounded=0;whiteSpace=wrap;html=1;" vertex="1" parent="1">
          <mxGeometry x="580" y="140" width="200" height="30" as="geometry" />
        </mxCell>
        <mxCell id="XF66pa3Y2nR7-TbKiucR-37" style="edgeStyle=orthogonalEdgeStyle;rounded=0;orthogonalLoop=1;jettySize=auto;html=1;exitX=0;exitY=0.75;exitDx=0;exitDy=0;entryX=1;entryY=0.5;entryDx=0;entryDy=0;" edge="1" parent="1" source="XF66pa3Y2nR7-TbKiucR-7" target="XF66pa3Y2nR7-TbKiucR-28">
          <mxGeometry relative="1" as="geometry" />
        </mxCell>
        <mxCell id="XF66pa3Y2nR7-TbKiucR-7" value="Audit Criteria" style="rounded=0;whiteSpace=wrap;html=1;" vertex="1" parent="1">
          <mxGeometry x="60" y="250" width="200" height="30" as="geometry" />
        </mxCell>
        <mxCell id="XF66pa3Y2nR7-TbKiucR-16" value="Save" style="rounded=1;whiteSpace=wrap;html=1;fillColor=#d5e8d4;strokeColor=#82b366;" vertex="1" parent="1">
          <mxGeometry x="360" y="318" width="100" height="40" as="geometry" />
        </mxCell>
        <mxCell id="XF66pa3Y2nR7-TbKiucR-17" style="edgeStyle=orthogonalEdgeStyle;rounded=0;orthogonalLoop=1;jettySize=auto;html=1;exitX=0.5;exitY=1;exitDx=0;exitDy=0;" edge="1" parent="1" source="XF66pa3Y2nR7-TbKiucR-16" target="XF66pa3Y2nR7-TbKiucR-16">
          <mxGeometry relative="1" as="geometry" />
        </mxCell>
        <mxCell id="XF66pa3Y2nR7-TbKiucR-19" value="" style="triangle;whiteSpace=wrap;html=1;rotation=90;fillColor=#24FF41;" vertex="1" parent="1">
          <mxGeometry x="222" y="256" width="10" height="20" as="geometry" />
        </mxCell>
        <mxCell id="XF66pa3Y2nR7-TbKiucR-20" value="Department" style="rounded=0;whiteSpace=wrap;html=1;" vertex="1" parent="1">
          <mxGeometry x="320" y="190" width="200" height="30" as="geometry" />
        </mxCell>
        <mxCell id="XF66pa3Y2nR7-TbKiucR-21" value="DepartMent Owner" style="rounded=0;whiteSpace=wrap;html=1;" vertex="1" parent="1">
          <mxGeometry x="580" y="200" width="200" height="30" as="geometry" />
        </mxCell>
        <mxCell id="XF66pa3Y2nR7-TbKiucR-22" value="&lt;font style=&quot;font-size: 19px;&quot;&gt;&lt;b&gt;Audit Topic&lt;/b&gt;&lt;/font&gt;" style="text;html=1;align=center;verticalAlign=middle;resizable=0;points=[];autosize=1;strokeColor=none;fillColor=none;" vertex="1" parent="1">
          <mxGeometry x="325" y="23" width="130" height="40" as="geometry" />
        </mxCell>
        <mxCell id="XF66pa3Y2nR7-TbKiucR-24" value="Priority Lvl(High,Medium,Low)" style="rounded=0;whiteSpace=wrap;html=1;" vertex="1" parent="1">
          <mxGeometry x="60" y="190" width="200" height="30" as="geometry" />
        </mxCell>
        <mxCell id="XF66pa3Y2nR7-TbKiucR-25" value="Audit Owner" style="rounded=0;whiteSpace=wrap;html=1;" vertex="1" parent="1">
          <mxGeometry x="325" y="246" width="200" height="30" as="geometry" />
        </mxCell>
        <mxCell id="XF66pa3Y2nR7-TbKiucR-26" value="Audit Start Date" style="rounded=0;whiteSpace=wrap;html=1;" vertex="1" parent="1">
          <mxGeometry x="580" y="250" width="200" height="30" as="geometry" />
        </mxCell>
        <mxCell id="XF66pa3Y2nR7-TbKiucR-28" value="" style="rounded=0;whiteSpace=wrap;html=1;" vertex="1" parent="1">
          <mxGeometry x="-380" y="241" width="380" height="100" as="geometry" />
        </mxCell>
        <mxCell id="XF66pa3Y2nR7-TbKiucR-29" value="" style="line;strokeWidth=1;html=1;" vertex="1" parent="1">
          <mxGeometry x="-380" y="261" width="380" height="10" as="geometry" />
        </mxCell>
        <mxCell id="XF66pa3Y2nR7-TbKiucR-30" value="" style="line;strokeWidth=1;html=1;" vertex="1" parent="1">
          <mxGeometry x="-380" y="286" width="380" height="10" as="geometry" />
        </mxCell>
        <mxCell id="XF66pa3Y2nR7-TbKiucR-31" value="ISO 9001:2015 Quality Management Standard (QMS)" style="text;html=1;align=center;verticalAlign=middle;whiteSpace=wrap;rounded=0;" vertex="1" parent="1">
          <mxGeometry x="-429" y="240" width="410" height="30" as="geometry" />
        </mxCell>
        <mxCell id="XF66pa3Y2nR7-TbKiucR-32" value="Safety Audits in the Safety Management System (SMS)" style="text;html=1;align=center;verticalAlign=middle;whiteSpace=wrap;rounded=0;" vertex="1" parent="1">
          <mxGeometry x="-395" y="264" width="350" height="30" as="geometry" />
        </mxCell>
        <mxCell id="XF66pa3Y2nR7-TbKiucR-33" value="Crisis Management ISO 22301:2019 BCMS" style="text;html=1;align=center;verticalAlign=middle;whiteSpace=wrap;rounded=0;" vertex="1" parent="1">
          <mxGeometry x="-422" y="288" width="340" height="30" as="geometry" />
        </mxCell>
        <mxCell id="XF66pa3Y2nR7-TbKiucR-34" value="Occupational Health &amp;amp; Safety Management System ISO 45001:2018" style="text;html=1;align=center;verticalAlign=middle;whiteSpace=wrap;rounded=0;" vertex="1" parent="1">
          <mxGeometry x="-395" y="312" width="410" height="30" as="geometry" />
        </mxCell>
        <mxCell id="XF66pa3Y2nR7-TbKiucR-36" value="" style="line;strokeWidth=1;html=1;" vertex="1" parent="1">
          <mxGeometry x="-380" y="311" width="380" height="10" as="geometry" />
        </mxCell>
        <mxCell id="XF66pa3Y2nR7-TbKiucR-39" value="" style="rounded=0;whiteSpace=wrap;html=1;" vertex="1" parent="1">
          <mxGeometry x="30" y="440" width="780" height="270" as="geometry" />
        </mxCell>
        <mxCell id="XF66pa3Y2nR7-TbKiucR-40" value="" style="rounded=0;whiteSpace=wrap;html=1;fillColor=#d5e8d4;strokeColor=#82b366;" vertex="1" parent="1">
          <mxGeometry x="30" y="410" width="780" height="30" as="geometry" />
        </mxCell>
        <mxCell id="XF66pa3Y2nR7-TbKiucR-41" value="" style="rounded=0;whiteSpace=wrap;html=1;" vertex="1" parent="1">
          <mxGeometry x="30" y="440" width="780" height="30" as="geometry" />
        </mxCell>
        <mxCell id="XF66pa3Y2nR7-TbKiucR-42" value="&lt;font style=&quot;font-size: 16px;&quot;&gt;&lt;b&gt;Audit Topic Details&lt;/b&gt;&lt;/font&gt;" style="text;html=1;align=center;verticalAlign=middle;whiteSpace=wrap;rounded=0;" vertex="1" parent="1">
          <mxGeometry x="-40" y="410" width="290" height="30" as="geometry" />
        </mxCell>
        <mxCell id="XF66pa3Y2nR7-TbKiucR-43" value="" style="line;strokeWidth=1;direction=south;html=1;" vertex="1" parent="1">
          <mxGeometry x="80" y="440" width="10" height="270" as="geometry" />
        </mxCell>
        <mxCell id="XF66pa3Y2nR7-TbKiucR-44" value="" style="line;strokeWidth=1;direction=south;html=1;" vertex="1" parent="1">
          <mxGeometry x="180" y="440" width="10" height="270" as="geometry" />
        </mxCell>
        <mxCell id="XF66pa3Y2nR7-TbKiucR-45" value="" style="line;strokeWidth=1;direction=south;html=1;" vertex="1" parent="1">
          <mxGeometry x="300" y="440" width="10" height="270" as="geometry" />
        </mxCell>
        <mxCell id="XF66pa3Y2nR7-TbKiucR-46" value="" style="line;strokeWidth=1;direction=south;html=1;" vertex="1" parent="1">
          <mxGeometry x="380" y="440" width="10" height="270" as="geometry" />
        </mxCell>
        <mxCell id="XF66pa3Y2nR7-TbKiucR-47" value="" style="line;strokeWidth=1;direction=south;html=1;" vertex="1" parent="1">
          <mxGeometry x="480" y="440" width="10" height="270" as="geometry" />
        </mxCell>
        <mxCell id="XF66pa3Y2nR7-TbKiucR-48" value="" style="line;strokeWidth=1;direction=south;html=1;" vertex="1" parent="1">
          <mxGeometry x="600" y="440" width="10" height="270" as="geometry" />
        </mxCell>
        <mxCell id="XF66pa3Y2nR7-TbKiucR-49" value="SL. NO." style="text;html=1;align=center;verticalAlign=middle;whiteSpace=wrap;rounded=0;" vertex="1" parent="1">
          <mxGeometry x="30" y="440" width="60" height="30" as="geometry" />
        </mxCell>
        <mxCell id="XF66pa3Y2nR7-TbKiucR-50" value="Audit Name" style="text;html=1;align=center;verticalAlign=middle;whiteSpace=wrap;rounded=0;" vertex="1" parent="1">
          <mxGeometry x="80" y="440" width="100" height="30" as="geometry" />
        </mxCell>
        <mxCell id="XF66pa3Y2nR7-TbKiucR-51" value="Audit Objective" style="text;html=1;align=center;verticalAlign=middle;whiteSpace=wrap;rounded=0;" vertex="1" parent="1">
          <mxGeometry x="190" y="440" width="100" height="30" as="geometry" />
        </mxCell>
        <mxCell id="XF66pa3Y2nR7-TbKiucR-52" value="Priority" style="text;html=1;align=center;verticalAlign=middle;whiteSpace=wrap;rounded=0;" vertex="1" parent="1">
          <mxGeometry x="292" y="440" width="100" height="30" as="geometry" />
        </mxCell>
        <mxCell id="XF66pa3Y2nR7-TbKiucR-53" value="Department" style="text;html=1;align=center;verticalAlign=middle;whiteSpace=wrap;rounded=0;" vertex="1" parent="1">
          <mxGeometry x="380" y="440" width="100" height="30" as="geometry" />
        </mxCell>
        <mxCell id="XF66pa3Y2nR7-TbKiucR-54" value="Department Owner" style="text;html=1;align=center;verticalAlign=middle;whiteSpace=wrap;rounded=0;" vertex="1" parent="1">
          <mxGeometry x="490" y="440" width="110" height="30" as="geometry" />
        </mxCell>
        <mxCell id="XF66pa3Y2nR7-TbKiucR-55" value="" style="line;strokeWidth=1;direction=south;html=1;" vertex="1" parent="1">
          <mxGeometry x="700" y="440" width="10" height="270" as="geometry" />
        </mxCell>
        <mxCell id="XF66pa3Y2nR7-TbKiucR-56" value="Audit Owner" style="text;html=1;align=center;verticalAlign=middle;whiteSpace=wrap;rounded=0;" vertex="1" parent="1">
          <mxGeometry x="600" y="440" width="110" height="30" as="geometry" />
        </mxCell>
        <mxCell id="XF66pa3Y2nR7-TbKiucR-57" value="Audit Start Date" style="text;html=1;align=center;verticalAlign=middle;whiteSpace=wrap;rounded=0;" vertex="1" parent="1">
          <mxGeometry x="700" y="440" width="110" height="30" as="geometry" />
        </mxCell>
        <mxCell id="XF66pa3Y2nR7-TbKiucR-58" value="" style="line;strokeWidth=1;html=1;" vertex="1" parent="1">
          <mxGeometry x="30" y="500" width="780" height="10" as="geometry" />
        </mxCell>
        <mxCell id="XF66pa3Y2nR7-TbKiucR-59" value="" style="line;strokeWidth=1;html=1;" vertex="1" parent="1">
          <mxGeometry x="30" y="610" width="780" height="10" as="geometry" />
        </mxCell>
        <mxCell id="XF66pa3Y2nR7-TbKiucR-60" value="" style="line;strokeWidth=1;html=1;" vertex="1" parent="1">
          <mxGeometry x="30" y="550" width="780" height="10" as="geometry" />
        </mxCell>
        <mxCell id="XF66pa3Y2nR7-TbKiucR-61" value="" style="line;strokeWidth=1;html=1;" vertex="1" parent="1">
          <mxGeometry x="30" y="660" width="780" height="10" as="geometry" />
        </mxCell>
        <mxCell id="XF66pa3Y2nR7-TbKiucR-62" value="1" style="text;html=1;align=center;verticalAlign=middle;whiteSpace=wrap;rounded=0;" vertex="1" parent="1">
          <mxGeometry x="30" y="470" width="60" height="30" as="geometry" />
        </mxCell>
        <mxCell id="XF66pa3Y2nR7-TbKiucR-63" value="2" style="text;html=1;align=center;verticalAlign=middle;whiteSpace=wrap;rounded=0;" vertex="1" parent="1">
          <mxGeometry x="30" y="520" width="60" height="30" as="geometry" />
        </mxCell>
        <mxCell id="XF66pa3Y2nR7-TbKiucR-64" value="3" style="text;html=1;align=center;verticalAlign=middle;whiteSpace=wrap;rounded=0;" vertex="1" parent="1">
          <mxGeometry x="30" y="570" width="60" height="30" as="geometry" />
        </mxCell>
        <mxCell id="XF66pa3Y2nR7-TbKiucR-65" value="4" style="text;html=1;align=center;verticalAlign=middle;whiteSpace=wrap;rounded=0;" vertex="1" parent="1">
          <mxGeometry x="29" y="622" width="60" height="30" as="geometry" />
        </mxCell>
        <mxCell id="XF66pa3Y2nR7-TbKiucR-66" value="5" style="text;html=1;align=center;verticalAlign=middle;whiteSpace=wrap;rounded=0;" vertex="1" parent="1">
          <mxGeometry x="29" y="671" width="60" height="30" as="geometry" />
        </mxCell>
        <mxCell id="XF66pa3Y2nR7-TbKiucR-67" value="Audit 1" style="text;html=1;align=center;verticalAlign=middle;whiteSpace=wrap;rounded=0;" vertex="1" parent="1">
          <mxGeometry x="89" y="470" width="100" height="30" as="geometry" />
        </mxCell>
        <mxCell id="XF66pa3Y2nR7-TbKiucR-68" value="Audit 5" style="text;html=1;align=center;verticalAlign=middle;whiteSpace=wrap;rounded=0;" vertex="1" parent="1">
          <mxGeometry x="85" y="671" width="100" height="30" as="geometry" />
        </mxCell>
        <mxCell id="XF66pa3Y2nR7-TbKiucR-69" value="Audit 2" style="text;html=1;align=center;verticalAlign=middle;whiteSpace=wrap;rounded=0;" vertex="1" parent="1">
          <mxGeometry x="88" y="518" width="100" height="30" as="geometry" />
        </mxCell>
        <mxCell id="XF66pa3Y2nR7-TbKiucR-70" value="Audit 3" style="text;html=1;align=center;verticalAlign=middle;whiteSpace=wrap;rounded=0;" vertex="1" parent="1">
          <mxGeometry x="89" y="570" width="100" height="30" as="geometry" />
        </mxCell>
        <mxCell id="XF66pa3Y2nR7-TbKiucR-71" value="Audit 4" style="text;html=1;align=center;verticalAlign=middle;whiteSpace=wrap;rounded=0;" vertex="1" parent="1">
          <mxGeometry x="88" y="625" width="100" height="30" as="geometry" />
        </mxCell>
        <mxCell id="XF66pa3Y2nR7-TbKiucR-72" value="&lt;span style=&quot;color: rgb(0, 29, 53); font-family: &amp;quot;Google Sans&amp;quot;, Arial, sans-serif; text-align: left; background-color: rgb(255, 255, 255);&quot;&gt;&lt;font style=&quot;font-size: 12px;&quot;&gt;Ensuring compliance&lt;/font&gt;&lt;/span&gt;" style="text;html=1;align=center;verticalAlign=middle;whiteSpace=wrap;rounded=0;strokeWidth=0;" vertex="1" parent="1">
          <mxGeometry x="189" y="470" width="115" height="30" as="geometry" />
        </mxCell>
        <mxCell id="XF66pa3Y2nR7-TbKiucR-73" value="&lt;span style=&quot;color: rgb(0, 29, 53); font-family: &amp;quot;Google Sans&amp;quot;, Arial, sans-serif; text-align: left; background-color: rgb(255, 255, 255);&quot;&gt;&lt;font style=&quot;font-size: 12px;&quot;&gt;Ensuring compliance&lt;/font&gt;&lt;/span&gt;" style="text;html=1;align=center;verticalAlign=middle;whiteSpace=wrap;rounded=0;strokeWidth=0;" vertex="1" parent="1">
          <mxGeometry x="188" y="671" width="115" height="30" as="geometry" />
        </mxCell>
        <mxCell id="XF66pa3Y2nR7-TbKiucR-74" value="&lt;span style=&quot;color: rgb(0, 29, 53); font-family: &amp;quot;Google Sans&amp;quot;, Arial, sans-serif; text-align: left; background-color: rgb(255, 255, 255);&quot;&gt;&lt;font style=&quot;font-size: 12px;&quot;&gt;Ensuring compliance&lt;/font&gt;&lt;/span&gt;" style="text;html=1;align=center;verticalAlign=middle;whiteSpace=wrap;rounded=0;strokeWidth=0;" vertex="1" parent="1">
          <mxGeometry x="187" y="622" width="115" height="30" as="geometry" />
        </mxCell>
        <mxCell id="XF66pa3Y2nR7-TbKiucR-75" value="&lt;span style=&quot;color: rgb(0, 29, 53); font-family: &amp;quot;Google Sans&amp;quot;, Arial, sans-serif; text-align: left; background-color: rgb(255, 255, 255);&quot;&gt;&lt;font style=&quot;font-size: 12px;&quot;&gt;Ensuring compliance&lt;/font&gt;&lt;/span&gt;" style="text;html=1;align=center;verticalAlign=middle;whiteSpace=wrap;rounded=0;strokeWidth=0;" vertex="1" parent="1">
          <mxGeometry x="189" y="520" width="115" height="30" as="geometry" />
        </mxCell>
        <mxCell id="XF66pa3Y2nR7-TbKiucR-76" value="&lt;span style=&quot;color: rgb(0, 29, 53); font-family: &amp;quot;Google Sans&amp;quot;, Arial, sans-serif; text-align: left; background-color: rgb(255, 255, 255);&quot;&gt;&lt;font style=&quot;font-size: 12px;&quot;&gt;Ensuring compliance&lt;/font&gt;&lt;/span&gt;" style="text;html=1;align=center;verticalAlign=middle;whiteSpace=wrap;rounded=0;strokeWidth=0;" vertex="1" parent="1">
          <mxGeometry x="188" y="570" width="115" height="30" as="geometry" />
        </mxCell>
        <mxCell id="XF66pa3Y2nR7-TbKiucR-77" value="High" style="text;html=1;align=center;verticalAlign=middle;whiteSpace=wrap;rounded=0;" vertex="1" parent="1">
          <mxGeometry x="292" y="470" width="100" height="30" as="geometry" />
        </mxCell>
        <mxCell id="XF66pa3Y2nR7-TbKiucR-78" value="Medium" style="text;html=1;align=center;verticalAlign=middle;whiteSpace=wrap;rounded=0;" vertex="1" parent="1">
          <mxGeometry x="294" y="518" width="100" height="30" as="geometry" />
        </mxCell>
        <mxCell id="XF66pa3Y2nR7-TbKiucR-79" value="Low" style="text;html=1;align=center;verticalAlign=middle;whiteSpace=wrap;rounded=0;" vertex="1" parent="1">
          <mxGeometry x="292" y="570" width="100" height="30" as="geometry" />
        </mxCell>
        <mxCell id="XF66pa3Y2nR7-TbKiucR-80" value="Low" style="text;html=1;align=center;verticalAlign=middle;whiteSpace=wrap;rounded=0;" vertex="1" parent="1">
          <mxGeometry x="292" y="622" width="100" height="30" as="geometry" />
        </mxCell>
        <mxCell id="XF66pa3Y2nR7-TbKiucR-81" value="High" style="text;html=1;align=center;verticalAlign=middle;whiteSpace=wrap;rounded=0;" vertex="1" parent="1">
          <mxGeometry x="292" y="670" width="100" height="30" as="geometry" />
        </mxCell>
        <mxCell id="XF66pa3Y2nR7-TbKiucR-82" value="Jhon Doe" style="text;html=1;align=center;verticalAlign=middle;whiteSpace=wrap;rounded=0;" vertex="1" parent="1">
          <mxGeometry x="490" y="470" width="100" height="30" as="geometry" />
        </mxCell>
        <mxCell id="XF66pa3Y2nR7-TbKiucR-83" value="Finance" style="text;html=1;align=center;verticalAlign=middle;whiteSpace=wrap;rounded=0;" vertex="1" parent="1">
          <mxGeometry x="372" y="470" width="100" height="30" as="geometry" />
        </mxCell>
        <mxCell id="XF66pa3Y2nR7-TbKiucR-84" value="Oparetion" style="text;html=1;align=center;verticalAlign=middle;whiteSpace=wrap;rounded=0;" vertex="1" parent="1">
          <mxGeometry x="375" y="518" width="100" height="30" as="geometry" />
        </mxCell>
        <mxCell id="XF66pa3Y2nR7-TbKiucR-85" value="Sales" style="text;html=1;align=center;verticalAlign=middle;whiteSpace=wrap;rounded=0;" vertex="1" parent="1">
          <mxGeometry x="375" y="570" width="100" height="30" as="geometry" />
        </mxCell>
        <mxCell id="XF66pa3Y2nR7-TbKiucR-86" value="IT" style="text;html=1;align=center;verticalAlign=middle;whiteSpace=wrap;rounded=0;" vertex="1" parent="1">
          <mxGeometry x="370" y="625" width="100" height="30" as="geometry" />
        </mxCell>
        <mxCell id="XF66pa3Y2nR7-TbKiucR-87" value="HR" style="text;html=1;align=center;verticalAlign=middle;whiteSpace=wrap;rounded=0;" vertex="1" parent="1">
          <mxGeometry x="372" y="671" width="100" height="30" as="geometry" />
        </mxCell>
        <mxCell id="XF66pa3Y2nR7-TbKiucR-89" value="Jhon Doe" style="text;html=1;align=center;verticalAlign=middle;whiteSpace=wrap;rounded=0;" vertex="1" parent="1">
          <mxGeometry x="493" y="518" width="100" height="30" as="geometry" />
        </mxCell>
        <mxCell id="XF66pa3Y2nR7-TbKiucR-90" value="Jhon Doe" style="text;html=1;align=center;verticalAlign=middle;whiteSpace=wrap;rounded=0;" vertex="1" parent="1">
          <mxGeometry x="605" y="671" width="100" height="30" as="geometry" />
        </mxCell>
        <mxCell id="XF66pa3Y2nR7-TbKiucR-91" value="Jhon Doe" style="text;html=1;align=center;verticalAlign=middle;whiteSpace=wrap;rounded=0;" vertex="1" parent="1">
          <mxGeometry x="500" y="671" width="100" height="30" as="geometry" />
        </mxCell>
        <mxCell id="XF66pa3Y2nR7-TbKiucR-92" value="Jhon Doe" style="text;html=1;align=center;verticalAlign=middle;whiteSpace=wrap;rounded=0;" vertex="1" parent="1">
          <mxGeometry x="605" y="622" width="100" height="30" as="geometry" />
        </mxCell>
        <mxCell id="XF66pa3Y2nR7-TbKiucR-93" value="Jhon Doe" style="text;html=1;align=center;verticalAlign=middle;whiteSpace=wrap;rounded=0;" vertex="1" parent="1">
          <mxGeometry x="495" y="622" width="100" height="30" as="geometry" />
        </mxCell>
        <mxCell id="XF66pa3Y2nR7-TbKiucR-94" value="Jhon Doe" style="text;html=1;align=center;verticalAlign=middle;whiteSpace=wrap;rounded=0;" vertex="1" parent="1">
          <mxGeometry x="605" y="570" width="100" height="30" as="geometry" />
        </mxCell>
        <mxCell id="XF66pa3Y2nR7-TbKiucR-95" value="Jhon Doe" style="text;html=1;align=center;verticalAlign=middle;whiteSpace=wrap;rounded=0;" vertex="1" parent="1">
          <mxGeometry x="497" y="570" width="100" height="30" as="geometry" />
        </mxCell>
        <mxCell id="XF66pa3Y2nR7-TbKiucR-96" value="Jhon Doe" style="text;html=1;align=center;verticalAlign=middle;whiteSpace=wrap;rounded=0;" vertex="1" parent="1">
          <mxGeometry x="605" y="518" width="100" height="30" as="geometry" />
        </mxCell>
        <mxCell id="XF66pa3Y2nR7-TbKiucR-97" value="Jhon Doe" style="text;html=1;align=center;verticalAlign=middle;whiteSpace=wrap;rounded=0;" vertex="1" parent="1">
          <mxGeometry x="600" y="470" width="100" height="30" as="geometry" />
        </mxCell>
        <mxCell id="XF66pa3Y2nR7-TbKiucR-99" value="&lt;span style=&quot;color: rgb(0, 0, 0); font-family: Helvetica; font-size: 12px; font-style: normal; font-variant-ligatures: normal; font-variant-caps: normal; font-weight: 400; letter-spacing: normal; orphans: 2; text-align: center; text-indent: 0px; text-transform: none; widows: 2; word-spacing: 0px; -webkit-text-stroke-width: 0px; white-space: normal; background-color: rgb(251, 251, 251); text-decoration-thickness: initial; text-decoration-style: initial; text-decoration-color: initial; display: inline !important; float: none;&quot;&gt;5th Jan&amp;nbsp;&lt;/span&gt;&lt;span style=&quot;color: rgb(0, 0, 0); font-family: Helvetica; font-size: 12px; font-style: normal; font-variant-ligatures: normal; font-variant-caps: normal; font-weight: 400; letter-spacing: normal; orphans: 2; text-align: center; text-indent: 0px; text-transform: none; widows: 2; word-spacing: 0px; -webkit-text-stroke-width: 0px; white-space: normal; background-color: rgb(251, 251, 251); text-decoration-thickness: initial; text-decoration-style: initial; text-decoration-color: initial; display: inline !important; float: none;&quot;&gt;2025&lt;/span&gt;" style="text;whiteSpace=wrap;html=1;" vertex="1" parent="1">
          <mxGeometry x="720" y="470" width="90" height="30" as="geometry" />
        </mxCell>
        <mxCell id="XF66pa3Y2nR7-TbKiucR-100" value="&lt;span style=&quot;color: rgb(0, 0, 0); font-family: Helvetica; font-size: 12px; font-style: normal; font-variant-ligatures: normal; font-variant-caps: normal; font-weight: 400; letter-spacing: normal; orphans: 2; text-align: center; text-indent: 0px; text-transform: none; widows: 2; word-spacing: 0px; -webkit-text-stroke-width: 0px; white-space: normal; background-color: rgb(251, 251, 251); text-decoration-thickness: initial; text-decoration-style: initial; text-decoration-color: initial; display: inline !important; float: none;&quot;&gt;5th Jan&amp;nbsp;&lt;/span&gt;&lt;span style=&quot;color: rgb(0, 0, 0); font-family: Helvetica; font-size: 12px; font-style: normal; font-variant-ligatures: normal; font-variant-caps: normal; font-weight: 400; letter-spacing: normal; orphans: 2; text-align: center; text-indent: 0px; text-transform: none; widows: 2; word-spacing: 0px; -webkit-text-stroke-width: 0px; white-space: normal; background-color: rgb(251, 251, 251); text-decoration-thickness: initial; text-decoration-style: initial; text-decoration-color: initial; display: inline !important; float: none;&quot;&gt;2025&lt;/span&gt;" style="text;whiteSpace=wrap;html=1;" vertex="1" parent="1">
          <mxGeometry x="720" y="622" width="90" height="30" as="geometry" />
        </mxCell>
        <mxCell id="XF66pa3Y2nR7-TbKiucR-101" value="&lt;span style=&quot;color: rgb(0, 0, 0); font-family: Helvetica; font-size: 12px; font-style: normal; font-variant-ligatures: normal; font-variant-caps: normal; font-weight: 400; letter-spacing: normal; orphans: 2; text-align: center; text-indent: 0px; text-transform: none; widows: 2; word-spacing: 0px; -webkit-text-stroke-width: 0px; white-space: normal; background-color: rgb(251, 251, 251); text-decoration-thickness: initial; text-decoration-style: initial; text-decoration-color: initial; display: inline !important; float: none;&quot;&gt;5th Jan&amp;nbsp;&lt;/span&gt;&lt;span style=&quot;color: rgb(0, 0, 0); font-family: Helvetica; font-size: 12px; font-style: normal; font-variant-ligatures: normal; font-variant-caps: normal; font-weight: 400; letter-spacing: normal; orphans: 2; text-align: center; text-indent: 0px; text-transform: none; widows: 2; word-spacing: 0px; -webkit-text-stroke-width: 0px; white-space: normal; background-color: rgb(251, 251, 251); text-decoration-thickness: initial; text-decoration-style: initial; text-decoration-color: initial; display: inline !important; float: none;&quot;&gt;2025&lt;/span&gt;" style="text;whiteSpace=wrap;html=1;" vertex="1" parent="1">
          <mxGeometry x="720" y="570" width="90" height="30" as="geometry" />
        </mxCell>
        <mxCell id="XF66pa3Y2nR7-TbKiucR-102" value="&lt;span style=&quot;color: rgb(0, 0, 0); font-family: Helvetica; font-size: 12px; font-style: normal; font-variant-ligatures: normal; font-variant-caps: normal; font-weight: 400; letter-spacing: normal; orphans: 2; text-align: center; text-indent: 0px; text-transform: none; widows: 2; word-spacing: 0px; -webkit-text-stroke-width: 0px; white-space: normal; background-color: rgb(251, 251, 251); text-decoration-thickness: initial; text-decoration-style: initial; text-decoration-color: initial; display: inline !important; float: none;&quot;&gt;5th Jan&amp;nbsp;&lt;/span&gt;&lt;span style=&quot;color: rgb(0, 0, 0); font-family: Helvetica; font-size: 12px; font-style: normal; font-variant-ligatures: normal; font-variant-caps: normal; font-weight: 400; letter-spacing: normal; orphans: 2; text-align: center; text-indent: 0px; text-transform: none; widows: 2; word-spacing: 0px; -webkit-text-stroke-width: 0px; white-space: normal; background-color: rgb(251, 251, 251); text-decoration-thickness: initial; text-decoration-style: initial; text-decoration-color: initial; display: inline !important; float: none;&quot;&gt;2025&lt;/span&gt;" style="text;whiteSpace=wrap;html=1;" vertex="1" parent="1">
          <mxGeometry x="720" y="520" width="90" height="30" as="geometry" />
        </mxCell>
        <mxCell id="XF66pa3Y2nR7-TbKiucR-104" value="&lt;span style=&quot;color: rgb(0, 0, 0); font-family: Helvetica; font-size: 12px; font-style: normal; font-variant-ligatures: normal; font-variant-caps: normal; font-weight: 400; letter-spacing: normal; orphans: 2; text-align: center; text-indent: 0px; text-transform: none; widows: 2; word-spacing: 0px; -webkit-text-stroke-width: 0px; white-space: normal; background-color: rgb(251, 251, 251); text-decoration-thickness: initial; text-decoration-style: initial; text-decoration-color: initial; display: inline !important; float: none;&quot;&gt;5th Jan&amp;nbsp;&lt;/span&gt;&lt;span style=&quot;color: rgb(0, 0, 0); font-family: Helvetica; font-size: 12px; font-style: normal; font-variant-ligatures: normal; font-variant-caps: normal; font-weight: 400; letter-spacing: normal; orphans: 2; text-align: center; text-indent: 0px; text-transform: none; widows: 2; word-spacing: 0px; -webkit-text-stroke-width: 0px; white-space: normal; background-color: rgb(251, 251, 251); text-decoration-thickness: initial; text-decoration-style: initial; text-decoration-color: initial; display: inline !important; float: none;&quot;&gt;2025&lt;/span&gt;" style="text;whiteSpace=wrap;html=1;" vertex="1" parent="1">
          <mxGeometry x="720" y="671" width="90" height="30" as="geometry" />
        </mxCell>
      </root>
    </mxGraphModel>
  </diagram>
</mxfile>
